<svg width="20" height="20" viewBox="0 0 20 20" fill="none" xmlns="http://www.w3.org/2000/svg">
<path fill-rule="evenodd" clip-rule="evenodd" d="M5.03319 4C5.32717 1.81519 7.51054 0 9.99959 0C12.4886 0 14.672 1.81519 14.966 4H17.8466C18.9511 4 19.8466 4.89543 19.8466 6C19.8466 6.09464 19.8399 6.18916 19.8265 6.28284L18.1122 18.2828C17.9714 19.2681 17.1276 20 16.1323 20H3.86688C2.87158 20 2.02774 19.2681 1.88699 18.2828L0.172699 6.28284C0.0164898 5.18937 0.776288 4.17631 1.86976 4.0201C1.96344 4.00672 2.05796 4 2.1526 4H5.03319ZM7.07227 4H12.928C12.624 2.93808 11.3982 2 10.0001 2C8.60211 2 7.37626 2.93808 7.07227 4ZM2.15234 6H4.99933V8H6.99933V6H12.9993V8H14.9993V6H17.8463L16.132 18H3.86663L2.15234 6Z" fill="white"/>
</svg>
