<svg width="24" height="24" viewBox="0 0 24 24" fill="none" xmlns="http://www.w3.org/2000/svg">
<path fill-rule="evenodd" clip-rule="evenodd" d="M16.1393 2.00002C14.8232 2 13.9749 2.17138 13.0024 2.69171C12.6424 2.88435 12.3046 3.11635 11.9909 3.38701C11.6893 3.13153 11.365 2.91018 11.0198 2.72357C10.0285 2.18759 9.13662 2 7.86777 2C4.46949 2 2 5.07786 2 9.07526C2 12.0941 3.53985 15.0102 6.40804 17.8301C7.91354 19.3102 9.83575 20.7749 11.2124 21.5542L12 22L12.7876 21.5542C14.1643 20.7749 16.0865 19.3102 17.592 17.8301C20.4602 15.0102 22 12.0941 22 9.07526C22 5.12017 19.5072 2.01526 16.1393 2.00002ZM20.182 9.0751C20.182 11.4402 18.8967 13.8743 16.3763 16.3522C15.0022 17.7031 13.2356 19.0532 12.0002 19.7615C10.7648 19.0532 8.99819 17.7031 7.62406 16.3522C5.10365 13.8743 3.81836 11.4402 3.81836 9.0751C3.81836 6.12156 5.53076 3.9873 7.86795 3.9873C8.8768 3.9873 9.49847 4.11807 10.2139 4.50488C10.6365 4.73337 11.0101 5.03507 11.3334 5.41209L12.0023 6.1921L12.6651 5.40591C12.9957 5.01378 13.3747 4.70521 13.8019 4.47664C14.4964 4.10506 15.0793 3.9873 16.1357 3.98731C18.444 3.99777 20.182 6.16255 20.182 9.0751Z" fill="white"/>
</svg>
