<svg width="24" height="24" viewBox="0 0 24 24" fill="none" xmlns="http://www.w3.org/2000/svg">
<path d="M16.8 7C16.2477 7 15.8 7.44772 15.8 8C15.8 8.55228 16.2477 9 16.8 9V7ZM16.8422 9C17.3945 9 17.8422 8.55228 17.8422 8C17.8422 7.44772 17.3945 7 16.8422 7V9ZM7.2 5H16.8V3H7.2V5ZM19 7.2V16.8H21V7.2H19ZM16.8 19H7.2V21H16.8V19ZM5 16.8V7.2H3V16.8H5ZM7.2 19C5.98497 19 5 18.015 5 16.8H3C3 19.1196 4.8804 21 7.2 21V19ZM19 16.8C19 18.015 18.015 19 16.8 19V21C19.1196 21 21 19.1196 21 16.8H19ZM16.8 5C18.015 5 19 5.98497 19 7.2H21C21 4.8804 19.1196 3 16.8 3V5ZM7.2 3C4.8804 3 3 4.8804 3 7.2H5C5 5.98497 5.98497 5 7.2 5V3ZM12 14.2C10.785 14.2 9.8 13.215 9.8 12H7.8C7.8 14.3196 9.6804 16.2 12 16.2V14.2ZM14.2 12C14.2 13.215 13.215 14.2 12 14.2V16.2C14.3196 16.2 16.2 14.3196 16.2 12H14.2ZM12 9.8C13.215 9.8 14.2 10.785 14.2 12H16.2C16.2 9.6804 14.3196 7.8 12 7.8V9.8ZM12 7.8C9.6804 7.8 7.8 9.6804 7.8 12H9.8C9.8 10.785 10.785 9.8 12 9.8V7.8ZM16.8 9H16.8422V7H16.8V9Z" fill="black"/>
</svg>
