<svg width="20" height="20" viewBox="0 0 20 20" fill="none" xmlns="http://www.w3.org/2000/svg">
<path fill-rule="evenodd" clip-rule="evenodd" d="M10 20C11.7246 20 13.387 19.562 14.8595 18.7418L19.0947 19.0947L18.7418 14.8595C19.562 13.387 20 11.7246 20 10C20 4.47715 15.5228 0 10 0C4.47715 0 0 4.47715 0 10C0 15.5228 4.47715 20 10 20ZM14.115 16.8621L14.3916 16.6958L16.9053 16.9053L16.6958 14.3916L16.8621 14.115C17.603 12.8824 18 11.4715 18 10C18 5.58172 14.4183 2 10 2C5.58172 2 2 5.58172 2 10C2 14.4183 5.58172 18 10 18C11.4715 18 12.8824 17.603 14.115 16.8621ZM10.0003 14.998C10.5528 14.998 11.0007 14.5503 11.0007 13.998C11.0007 13.4458 10.5528 12.998 10.0003 12.998C9.44786 12.998 9 13.4458 9 13.998C9 14.5503 9.44786 14.998 10.0003 14.998ZM9 12H11V11C11 11.0024 11.0047 10.9972 11.0154 10.9854C11.0417 10.9565 11.1039 10.888 11.2205 10.7955C11.3207 10.716 11.3517 10.6954 11.6048 10.535C12.4661 9.98899 13 9.03956 13 8C13 6.34315 11.6569 5 10 5C8.34315 5 7 6.34315 7 8H9C9 7.44772 9.44772 7 10 7C10.5523 7 11 7.44772 11 8C11 8.34732 10.8225 8.66287 10.534 8.84581C10.2102 9.05108 10.1564 9.08671 9.97749 9.22865C9.38274 9.70048 9 10.2627 9 11V12Z" fill="black"/>
</svg>
