<svg width="20" height="20" viewBox="0 0 20 20" fill="none" xmlns="http://www.w3.org/2000/svg">
<path d="M5.5 17.65L10 8.73998M5.92251 12.52C5.05 11.8 4.6 10.9681 4.6 10V9.10001C4.6 6.66444 6.66442 4.6 9.1 4.6H10.9C13.3356 4.6 15.4 6.66442 15.4 9.1V10C15.4 12.0876 13.4376 13.6 11.35 13.6C10.0417 13.6 8.91531 12.6766 8.65874 11.3937L8.65 11.35M10 19C5.02944 19 1 14.9706 1 10C1 5.02944 5.02944 1 10 1C14.9706 1 19 5.02944 19 10C19 14.9706 14.9706 19 10 19Z" stroke="black" stroke-width="2"/>
</svg>
