<svg width="19" height="16" viewBox="0 0 19 16" fill="none" xmlns="http://www.w3.org/2000/svg">
<path fill-rule="evenodd" clip-rule="evenodd" d="M6.20715 1.70735C6.59767 1.31683 6.59767 0.683662 6.20715 0.293137C5.81662 -0.0973869 5.18346 -0.0973869 4.79293 0.293137L0.550293 4.53578L4.79293 8.77842C5.18346 9.16894 5.81662 9.16894 6.20715 8.77842C6.59767 8.38789 6.59767 7.75473 6.20715 7.36421L4.34303 5.50009H12.25C14.5973 5.50009 16.5 7.40288 16.5 9.75009C16.5 12.0973 14.5973 14.0001 12.25 14.0001H2.50004C1.94776 14.0001 1.50004 14.4478 1.50004 15.0001C1.50004 15.5524 1.94776 16.0001 2.50004 16.0001H12.25C15.7018 16.0001 18.5 13.2019 18.5 9.75009C18.5 6.29831 15.7018 3.50009 12.25 3.50009H4.41441L6.20715 1.70735Z" fill="black"/>
</svg>
