<svg width="20" height="18" viewBox="0 0 20 18" fill="none" xmlns="http://www.w3.org/2000/svg">
<path d="M18.9722 1L19.9701 0.934875C19.9438 0.532098 19.678 0.184614 19.2961 0.0538942C18.9142 -0.0768257 18.4912 0.0348511 18.2236 0.33703L18.9722 1ZM18.6885 4.86469C18.6885 4.31241 18.2408 3.86469 17.6885 3.86469C17.1362 3.86469 16.6885 4.31241 16.6885 4.86469H18.6885ZM10 6.02857V7.02857H11V6.02857H10ZM2.28373 1L3.22203 0.654171C3.08369 0.278843 2.735 0.0220625 2.33553 0.00134248C1.93606 -0.0193776 1.56267 0.19995 1.38625 0.558952L2.28373 1ZM7.3 12.8857L8.0132 13.5867C8.25441 13.3413 8.35249 12.9891 8.27285 12.6543C8.19322 12.3195 7.94706 12.0492 7.62118 11.9387L7.3 12.8857ZM1 15.3673V14.3673C0.560813 14.3673 0.173027 14.6539 0.0440758 15.0737C-0.0848756 15.4936 0.0751916 15.9484 0.438655 16.1949L1 15.3673ZM16.7064 2.27135L15.9594 2.93621L16.3209 3.34242L16.8584 3.25972L16.7064 2.27135ZM17.9743 1.06512C18.0396 2.06453 17.9753 2.6281 17.8354 3.02881C17.703 3.40795 17.4706 3.73486 16.991 4.20181L18.386 5.63492C18.9671 5.06924 19.4451 4.48569 19.7236 3.68816C19.9945 2.91221 20.0418 2.03292 19.9701 0.934875L17.9743 1.06512ZM18.6885 5.81632V4.91837H16.6885V5.81632H18.6885ZM18.6885 4.91837V4.86469H16.6885V4.91837H18.6885ZM9 5.11429V6.02857H11V5.11429H9ZM13.8901 0C11.1164 0 9 2.43588 9 5.11429H11C11 3.40529 12.3515 2 13.8901 2V0ZM16.6885 5.81632C16.6885 11.295 12.157 16 6.85 16V18C13.3299 18 18.6885 12.3301 18.6885 5.81632H16.6885ZM1.34543 1.34583C2.08678 3.35724 4.84208 7.02857 10 7.02857V5.02857C5.91506 5.02857 3.76441 2.12576 3.22203 0.654171L1.34543 1.34583ZM1.38625 0.558952C0.0105553 3.35833 -0.250546 6.14464 0.737956 8.54776C1.72747 10.9533 3.89114 12.7856 6.97882 13.8327L7.62118 11.9387C4.93207 11.0267 3.30388 9.52829 2.58759 7.78693C1.87029 6.04312 1.98944 3.86616 3.18121 1.44105L1.38625 0.558952ZM6.5868 12.1848C5.87175 12.9123 3.75209 14.3673 1 14.3673V16.3673C4.40981 16.3673 7.01663 14.6006 8.0132 13.5867L6.5868 12.1848ZM17.4533 1.6065C16.5787 0.623868 15.3073 0 13.8901 0V2C14.7067 2 15.444 2.35714 15.9594 2.93621L17.4533 1.6065ZM16.8584 3.25972C17.9251 3.09561 18.9536 2.5294 19.7209 1.66297L18.2236 0.33703C17.7508 0.870952 17.1375 1.19326 16.5543 1.28298L16.8584 3.25972ZM0.438655 16.1949C2.58178 17.6486 4.649 18 6.85 18V16C4.90224 16 3.26941 15.6983 1.56134 14.5398L0.438655 16.1949Z" fill="black"/>
</svg>
