<svg width="22" height="22" viewBox="0 0 22 22" fill="none" xmlns="http://www.w3.org/2000/svg">
<path fill-rule="evenodd" clip-rule="evenodd" d="M11 22C4.92487 22 0 17.0751 0 11C0 4.92487 4.92487 0 11 0C17.0751 0 22 4.92487 22 11C22 17.0751 17.0751 22 11 22ZM10.998 20C15.9686 20 19.998 15.9706 19.998 11C19.998 6.02944 15.9686 2 10.998 2C6.02748 2 1.99805 6.02944 1.99805 11C1.99805 15.9706 6.02748 20 10.998 20ZM12.176 7.16023H10V5.24023H12.176V7.16023ZM12.176 17.0002H10V8.36023H12.176V17.0002Z" fill="black"/>
</svg>
