<svg width="20" height="16" viewBox="0 0 20 16" fill="none" xmlns="http://www.w3.org/2000/svg">
<path d="M2.53082 14.292L2.34278 15.2742H2.34278L2.53082 14.292ZM17.4692 14.292L17.6572 15.2742H17.6572L17.4692 14.292ZM17.5717 1.76785L17.7727 0.788249L17.5717 1.76785ZM2.42826 1.76785L2.6292 2.74746H2.6292L2.42826 1.76785ZM8.2 5.38381L8.69804 4.51666C8.38859 4.33892 8.00787 4.33957 7.69902 4.51835C7.39017 4.69713 7.2 5.02695 7.2 5.38381H8.2ZM8.2 10.5529H7.2C7.2 10.9098 7.39017 11.2396 7.69902 11.4184C8.00787 11.5971 8.38859 11.5978 8.69804 11.4201L8.2 10.5529ZM12.7 7.96835L13.198 8.83551C13.5085 8.65717 13.7 8.32643 13.7 7.96835C13.7 7.61028 13.5085 7.27954 13.198 7.1012L12.7 7.96835ZM0 3.45904V12.5046H2V3.45904H0ZM20 12.5046V3.45904H18V12.5046H20ZM2.34278 15.2742C7.39764 16.2419 12.6024 16.2419 17.6572 15.2742L17.2812 13.3099C12.4747 14.23 7.52525 14.23 2.71885 13.3099L2.34278 15.2742ZM17.7727 0.788249C12.6489 -0.262749 7.35108 -0.26275 2.22732 0.788249L2.6292 2.74746C7.4878 1.75085 12.5122 1.75085 17.3708 2.74746L17.7727 0.788249ZM20 3.45904C20 2.13959 19.0418 1.04858 17.7727 0.788249L17.3708 2.74746C17.7678 2.82889 18 3.14737 18 3.45904H20ZM18 12.5046C18 12.8639 17.7299 13.224 17.2811 13.3099L17.6572 15.2742C18.9887 15.0193 20 13.8831 20 12.5046H18ZM0 12.5046C0 13.8831 1.01132 15.0193 2.34278 15.2742L2.71885 13.3099C2.2701 13.224 2 12.8639 2 12.5046H0ZM2 3.45904C2 3.14737 2.23219 2.82889 2.6292 2.74746L2.22732 0.788249C0.95816 1.04858 0 2.13959 0 3.45904H2ZM7.2 5.38381V10.5529H9.2V5.38381H7.2ZM8.69804 11.4201L13.198 8.83551L12.202 7.1012L7.70196 9.68575L8.69804 11.4201ZM13.198 7.1012L8.69804 4.51666L7.70196 6.25096L12.202 8.83551L13.198 7.1012Z" fill="black"/>
</svg>
